<svg xmlns="http://www.w3.org/2000/svg" version="1.1" xmlns:xlink="http://www.w3.org/1999/xlink" width="1500" height="1500" viewBox="0 0 1500 1500"><rect width="1500" height="1500" x="0" y="0" id="background" stroke="transparent" fill="#ffffff"></rect><svg xml:space="preserve" width="1000" height="1000" data-version="2" data-id="lg_V7mG06gKv8GuGzbbMy" viewBox="0 0 426 128" x="250" y="250"><rect width="100%" height="100%" fill="transparent"></rect><path fill="#f9d1d1" d="M118.876 43.97v3.53q0 1.8-2.46 1.93-2.45.12-5.33.12t-6.57-.21q-1.22-.08-1.96-.84-.73-.75-.86-1.72-.33-3.69-.33-11.61t.25-11.53q.25-3.61 3.65-3.65 3.91-.09 8.36-.09 4.45 0 9.64.13 5.19.12 8.46 3.9 3.28 3.78 3.28 8.32 0 4.54-2.9 7.48-2.9 2.94-8.48 2.94h-3.28q-.55 0-1.01.37-.46.38-.46.93m-.04-15.21.08 7.77q0 .8.88.8 2.61 0 4.1-1.45 1.49-1.45 1.49-3.42t-1.41-3.4q-1.4-1.43-4.13-1.43-1.01 0-1.01 1.13"></path><rect width="33.64" height="29.65" x="-16.82" y="-14.82" fill="none" rx="0" ry="0" transform="translate(118.69 35.23)"></rect><path fill="#f9d1d1" d="M151.425 38.89q0 4.7 2.48 4.7t2.48-4.7q0-2.15-.51-3.3-.5-1.16-1.97-1.16t-1.98 1.16q-.5 1.15-.5 3.3m18.14 0q0 11.42-15.66 11.42-15.67 0-15.67-11.42 0-5.42 3.99-8.4 3.99-2.99 11.68-2.99 7.68 0 11.67 2.99 3.99 2.98 3.99 8.4"></path><rect width="31.33" height="22.81" x="-15.66" y="-11.4" fill="none" rx="0" ry="0" transform="translate(154.4 39.4)"></rect><path fill="#f9d1d1" d="M176.456 28.01h8.19q1.43 0 1.98.61.54.61.54 1.82v1.52q2.35-4.46 7.65-4.46 1.76 0 2.89 1.14 1.14 1.13 1.14 3.02 0 1.89-1.01 3.76-1.01 1.87-2.81 1.87-.84 0-2.36-.86-1.51-.86-2.43-.86-.93 0-1.91.67-.99.67-.99 2.23 0 6.76-.25 8.94-.13.72-.72 1.26-.58.55-2.07.65-1.5.11-2.97.11-1.47 0-4.99-.17-1.01-.04-1.6-.59-.59-.54-.67-1.26-.3-2.73-.3-8.36 0-5.62.17-7.7t.63-2.71q.46-.63 1.89-.63"></path><rect width="25.08" height="21.93" x="-12.54" y="-10.96" fill="none" rx="0" ry="0" transform="translate(186.8 38.97)"></rect><path fill="#f9d1d1" d="M203.126 34.1q0-.67-.92-.67-1.64 0-1.93-1.1-.17-.54-.17-1.68 0-1.13.31-1.61.32-.49 1.22-.72.9-.23 1.64-.79.73-.57 3.02-2.5 2.29-1.94 3.2-2.52.9-.59 2.24-.59h2.1q1.47 0 1.98.36.5.35.5 1.11v3.99q0 .88.76.88h4.49q1.09 0 1.58.46.48.46.48 2.12 0 1.66-.51 2.12-.5.47-1.51.47h-4.37q-.58 0-.75.29-.17.29-.17.84v5.04q.08 1.43 1.07 2.39.99.97 2.79.97.89 0 2.19-.48 1.3-.49 1.76-.49 1.14 0 1.14 3.36 0 2.44-1.31 2.94-1.34.47-3.78.76-2.43.29-4.87.29-2.43 0-4.64-.39-2.2-.4-4.01-1.41-3.53-2.06-3.53-7.86Z"></path><rect width="25.16" height="27.42" x="-12.58" y="-13.71" fill="none" rx="0" ry="0" transform="translate(213.19 36.13)"></rect><path fill="#f9d1d1" d="M231.815 28.01h8.19q1.43 0 1.97.61.55.61.55 1.82v1.52q2.35-4.46 7.64-4.46 1.77 0 2.9 1.14 1.13 1.13 1.13 3.02 0 1.89-1 3.76-1.01 1.87-2.82 1.87-.84 0-2.35-.86-1.51-.86-2.44-.86-.92 0-1.91.67-.98.67-.98 2.23 0 6.76-.26 8.94-.12.72-.71 1.26-.59.55-2.08.65-1.49.11-2.96.11t-5-.17q-1.01-.04-1.59-.59-.59-.54-.68-1.26-.29-2.73-.29-8.36 0-5.62.17-7.7t.63-2.71q.46-.63 1.89-.63"></path><rect width="25.07" height="21.93" x="-12.54" y="-10.96" fill="none" rx="0" ry="0" transform="translate(242.16 38.97)"></rect><path fill="#f9d1d1" d="M271.506 27.34q13.69 0 13.82 8.9.08 3.78.08 6.93t-.04 4.24q-.04 1.09-.57 1.58-.52.48-2.04.48h-8.9q-1.34 0-1.85-.48-.5-.49-.54-1.45 0-.04-.02-.15-.03-.1-.03-.19-2.77 2.86-7.56 2.86-3.31 0-5.64-1.66-2.34-1.66-2.34-4.58t1.66-4.66q1.66-1.74 3.95-2.37 2.29-.63 4.92-.63 2.62 0 5.14.5v-.17q0-2.1-.82-3.02-.82-.93-2.64-.93-1.83 0-3.05.32-1.22.31-1.85.65-1.72 1.01-2.39 1.01-.67 0-1.2-.63-.52-.63-.52-1.95 0-1.33.48-1.83.48-.51 1.53-1.01 3.66-1.76 10.42-1.76m-1.98 17.17q1.85 0 1.89-.71.09-1.39.09-3.65 0-.89-1.35-.89-1.34 0-2.18.66-.84.65-.84 1.91 0 1.26.69 1.97.7.71 1.7.71"></path><rect width="29.53" height="22.72" x="-14.77" y="-11.36" fill="none" rx="0" ry="0" transform="translate(271.14 39.2)"></rect><path fill="#f9d1d1" d="M293.135 28.13h8.19q1.43 0 1.91.63t.63 2.8q.15 2.16.15 7.89 0 5.74-.26 8.09-.12.71-.71 1.26-.59.54-2.08.65-1.49.1-3.55.1-2.06 0-3.74-.1-1.68-.11-2.26-.65-.59-.55-.68-1.26-.29-2.73-.29-8.38t.17-7.71q.17-2.06.63-2.69.46-.63 1.89-.63m4.53-9.91q2.78 0 4.18 1.12 1.41 1.11 1.41 3.04 0 4.54-6.05 4.54-2.43 0-4.16-1.05-1.72-1.05-1.72-3.15 0-4.5 6.34-4.5"></path><rect width="13.57" height="31.33" x="-6.79" y="-15.66" fill="none" rx="0" ry="0" transform="translate(297.73 34.38)"></rect><path fill="#f9d1d1" d="M310.815 34.1q0-.67-.92-.67-1.64 0-1.94-1.1-.16-.54-.16-1.68 0-1.13.31-1.61.32-.49 1.22-.72.9-.23 1.64-.79.73-.57 3.02-2.5 2.29-1.94 3.19-2.52.91-.59 2.25-.59h2.1q1.47 0 1.97.36.51.35.51 1.11v3.99q0 .88.75.88h4.5q1.09 0 1.57.46.49.46.49 2.12 0 1.66-.51 2.12-.5.47-1.51.47h-4.37q-.59 0-.75.29-.17.29-.17.84v5.04q.08 1.43 1.07 2.39.99.97 2.79.97.88 0 2.19-.48 1.3-.49 1.76-.49 1.13 0 1.13 3.36 0 2.44-1.3 2.94-1.34.47-3.78.76-2.43.29-4.87.29t-4.64-.39q-2.21-.4-4.01-1.41-3.53-2.06-3.53-7.86Z"></path><rect width="25.15" height="27.42" x="-12.57" y="-13.71" fill="none" rx="0" ry="0" transform="translate(320.87 36.13)"></rect><path fill="#f9d1d1" d="M373.895 50.23q-5.08 0-9.19-1.33-4.12-1.32-6.68-3.55-2.56-2.22-3.91-4.97-1.34-2.75-1.34-5.74 0-2.98 1.36-5.73 1.37-2.75 3.91-4.98 2.54-2.22 6.66-3.57 4.11-1.34 9.03-1.34 4.91 0 8.69 1.22 3.78 1.22 6.09 3.32 4.7 4.28 4.7 10.16 0 2.98-1.28 5.84-1.28 2.85-3.65 5.19-2.37 2.33-6.11 3.82-3.74 1.49-8.28 1.66m8.32-16.32v-1q0-1-1.43-2.49-1.43-1.49-4.34-1.49-2.92 0-4.65 1.56-1.72 1.55-1.72 3.78 0 2.22 1.81 3.57 1.8 1.34 4.35 1.34 2.54 0 4.26-1.64 1.72-1.64 1.72-3.63"></path><rect width="40.44" height="31.21" x="-20.22" y="-15.61" fill="none" rx="0" ry="0" transform="translate(373.5 35.13)"></rect><path fill="#f9d1d1" d="M415.986 34.73h-3.91q-.75 0-.75.88v11q0 1.43-.51 2.1-.5.68-1.97.68h-8.19q-1.47 0-1.95-.65-.49-.66-.57-2.13-.17-3.57-.17-10.5 0-.96-.17-1.19-.17-.23-.63-.23-1.43 0-1.43-2.57 0-1.51.42-2.01.42-.51 1.31-.55.25 0 .46-.21.21-.21.21-.46v-.88q0-8.32 10.08-9.45 2.01-.25 5.06-.25 3.04 0 6.45 1.13 1.47.5 1.47 3.38t-1.35 2.88q-.59 0-2.1-.48-1.51-.49-2.56-.49-1.93 0-2.9 1.07-.96 1.07-.96 2.63 0 1.13.92 1.13h3.78q1.01 0 1.51.46.51.47.51 2.13 0 1.65-.49 2.12-.48.46-1.57.46"></path><rect width="25.46" height="31.08" x="-12.73" y="-15.54" fill="none" rx="0" ry="0" transform="translate(408.97 34.35)"></rect><path fill="#f9d1d1" d="m166.136 74.47-.06 12.8q0 2.82.86 4.19.86 1.38 3.62 1.38h16.19q2.94.06 2.94 4.48 0 3.39-.83 4.93-.83 1.53-3.39 1.6-9.03.25-17.86.25t-22.53-.12q-2.3 0-3.74-1.12-1.44-1.12-1.63-3.11-.51-5.57-.51-17.57t.28-16.19q.29-4.19 1.19-5.57.89-1.37 3.52-1.37h17.15q2.69 0 3.55 1.41.87 1.4 1.06 4.54.19 3.14.19 9.47"></path><rect width="50.49" height="45.05" x="-25.25" y="-22.52" fill="none" rx="0" ry="0" transform="translate(164.94 82.08)"></rect><path fill="#f9d1d1" d="m203.196 73.22 1.47-.72q1.47-.72 4.57-1.36 3.11-.64 7.68-.64 4.58 0 8.74 1.12t6.21 3.04q3.58 3.52 3.58 8.26 0 7.42-12.54 7.42-4.42 0-9.15-.83.19 4.23 1.56 5.95 1.38 1.73 4.9 1.73 3.52 0 5.82-.77 2.31-.76 3.72-1.56 1.4-.8 2.4-.8.99 0 1.69.89 1.09 1.15 1.09 3.17t-.8 2.75q-.8.74-2.53 1.44-6.08 2.56-17.28 2.56-9.28 0-15.26-4.45-5.99-4.44-5.99-12 0-3.64 1.35-6.68 1.34-3.04 3.58-5.06 2.24-2.02 5.19-3.46m14.84 4.58q-3.9 0-4.22 6.34 3.07.25 3.2.25 4.22 0 4.22-2.81 0-3.78-3.2-3.78"></path><rect width="42.37" height="34.37" x="-21.18" y="-17.18" fill="none" rx="0" ry="0" transform="translate(214.76 88.19)"></rect><path fill="#f9d1d1" d="M255.925 95.46q0-1.79-1.5-2.81-1.51-1.03-3.65-1.57-2.14-.54-4.32-1.28t-3.68-2.56q-1.5-1.82-1.5-4.83 0-11.91 18.49-11.91 7.94 0 12.74 2.69 1.53.83 2.17 1.57.64.74.64 2.59 0 1.86-.73 2.79-.74.92-1.47.92-.74 0-3.2-1.44-2.47-1.44-5.09-1.5-2.11 0-2.11 2.11 0 1.41 1.47 2.24 1.47.83 3.58 1.44 2.11.61 4.23 1.47 2.11.87 3.58 2.88 1.47 2.02 1.47 5.09 0 11.91-18.49 11.91-9.03 0-14.72-2.63-1.73-.7-2.5-1.44-.77-.73-.77-2.69 0-1.95.8-2.78.8-.83 1.35-.83.54 0 3.68 1.41 3.13 1.4 6.33 1.4t3.2-2.24"></path><rect width="36.48" height="34.76" x="-18.24" y="-17.38" fill="none" rx="0" ry="0" transform="translate(259.3 88.38)"></rect><path fill="#f9d1d1" d="M287.605 57.06h12.29q2.11 0 2.82 1 .7.99.89 3.16.39 7.68.39 21.22t-.52 18.66q-.12 1.02-1.02 1.85-.9.83-3.17.99-2.27.16-5.34.16t-5.51-.12q-4.16-.32-4.35-2.88-.64-5.57-.64-19.75 0-14.17.51-20.13.2-2.17.87-3.16.67-1 2.78-1"></path><rect width="20.55" height="47.04" x="-10.28" y="-23.52" fill="none" rx="0" ry="0" transform="translate(294.22 81.08)"></rect><path fill="#f9d1d1" d="M315.766 71.46h12.48q2.18 0 2.91.96.74.96.96 4.26.23 3.3.23 12.03 0 8.74-.39 12.32-.19 1.09-1.08 1.92-.9.83-3.17.99-2.27.16-5.41.16t-5.7-.16q-2.56-.16-3.45-.99-.9-.83-1.03-1.92-.44-4.16-.44-12.77 0-8.6.25-11.74.26-3.14.96-4.1.71-.96 2.88-.96m6.91-15.1q4.23 0 6.37 1.7 2.15 1.69 2.15 4.64 0 6.91-9.22 6.91-3.71 0-6.34-1.6-2.62-1.6-2.62-4.8 0-6.85 9.66-6.85"></path><rect width="20.67" height="47.74" x="-10.34" y="-23.87" fill="none" rx="0" ry="0" transform="translate(322.51 80.73)"></rect><path fill="#f9d1d1" d="m348.856 73.22 1.47-.72q1.47-.72 4.58-1.36 3.1-.64 7.68-.64 4.57 0 8.73 1.12t6.21 3.04q3.59 3.52 3.59 8.26 0 7.42-12.55 7.42-4.41 0-9.15-.83.19 4.23 1.57 5.95 1.37 1.73 4.89 1.73 3.52 0 5.83-.77 2.3-.76 3.71-1.56 1.41-.8 2.4-.8t1.7.89q1.08 1.15 1.08 3.17t-.8 2.75q-.8.74-2.52 1.44-6.08 2.56-17.28 2.56-9.28 0-15.27-4.45-5.98-4.44-5.98-12 0-3.64 1.34-6.68 1.35-3.04 3.59-5.06 2.24-2.02 5.18-3.46m14.85 4.58q-3.91 0-4.23 6.34 3.08.25 3.2.25 4.23 0 4.23-2.81 0-3.78-3.2-3.78"></path><rect width="42.37" height="34.37" x="-21.18" y="-17.18" fill="none" rx="0" ry="0" transform="translate(360.43 88.19)"></rect><path fill="#f9d1d1" d="m80.483 124.755-.725-.467c-1.418-.913-2.604-1.63-3.651-2.265-3.608-2.185-5.419-3.282-9.12-7.726-.668-.767-1.342-1.534-2.015-2.303-4.638-5.295-9.375-10.708-13.38-16.57.421.007.844-.005 1.265-.05 0 0-14.254-38.814-15.856-47.347C35.4 39.492 10.801 3.2 5.97 1.323c-4.83-1.878-.271 41.636.92 43.083 1.19 1.447 15.732.896 15.732.896l-12.429 3.81s-1.907.285-.715 1.73c1.19 1.448 22.949 33.94 25.505 35.831 1.747 1.293 6.01 5.237 10.883 7.363 3.863 6.526 8.836 13.904 15.28 20.48.913.842 2.02 2.098 3.192 3.427 1.46 1.656 3.003 3.405 4.579 4.87l-.687-.174 1.141.589c1.98 1.762 4.001 3.02 5.967 3.03.772.32 1.453.477 2.072.477.972 0 1.81-.397 2.441-1.151l.02-.004-.014-.003c.036-.043.07-.088.104-.132zm-2.61.32-5.132-1.297c-2.395-1.439-4.996-4.389-7.206-6.897-1.2-1.36-2.334-2.646-3.277-3.516-8.125-8.294-13.917-17.97-18.056-25.474-5.193-9.335-9.043-18.535-12.767-27.43a2006.164 2006.164 0 0 0-.972-2.323c5.188 9.163 9.656 18.58 13.766 27.595 4.655 10.322 12.222 18.959 19.54 27.313.673.768 1.344 1.533 2 2.286 3.86 4.635 5.867 5.851 9.51 8.057.802.485 1.685 1.02 2.69 1.653a.907.907 0 0 1-.096.032"></path></svg></svg>